<svg width="21" height="21" viewBox="0 0 21 21" fill="none" xmlns="http://www.w3.org/2000/svg">
<g id="Icon/Special/CalendarCheck">
<path id="Vector" d="M16.75 3H14.875V2.375C14.875 2.20924 14.8092 2.05027 14.6919 1.93306C14.5747 1.81585 14.4158 1.75 14.25 1.75C14.0842 1.75 13.9253 1.81585 13.8081 1.93306C13.6908 2.05027 13.625 2.20924 13.625 2.375V3H7.375V2.375C7.375 2.20924 7.30915 2.05027 7.19194 1.93306C7.07473 1.81585 6.91576 1.75 6.75 1.75C6.58424 1.75 6.42527 1.81585 6.30806 1.93306C6.19085 2.05027 6.125 2.20924 6.125 2.375V3H4.25C3.91848 3 3.60054 3.1317 3.36612 3.36612C3.1317 3.60054 3 3.91848 3 4.25V16.75C3 17.0815 3.1317 17.3995 3.36612 17.6339C3.60054 17.8683 3.91848 18 4.25 18H16.75C17.0815 18 17.3995 17.8683 17.6339 17.6339C17.8683 17.3995 18 17.0815 18 16.75V4.25C18 3.91848 17.8683 3.60054 17.6339 3.36612C17.3995 3.1317 17.0815 3 16.75 3ZM6.125 4.25V4.875C6.125 5.04076 6.19085 5.19973 6.30806 5.31694C6.42527 5.43415 6.58424 5.5 6.75 5.5C6.91576 5.5 7.07473 5.43415 7.19194 5.31694C7.30915 5.19973 7.375 5.04076 7.375 4.875V4.25H13.625V4.875C13.625 5.04076 13.6908 5.19973 13.8081 5.31694C13.9253 5.43415 14.0842 5.5 14.25 5.5C14.4158 5.5 14.5747 5.43415 14.6919 5.31694C14.8092 5.19973 14.875 5.04076 14.875 4.875V4.25H16.75V6.75H4.25V4.25H6.125ZM16.75 16.75H4.25V8H16.75V16.75ZM13.7547 10.0578C13.8128 10.1159 13.8589 10.1848 13.8904 10.2607C13.9218 10.3365 13.938 10.4179 13.938 10.5C13.938 10.5821 13.9218 10.6635 13.8904 10.7393C13.8589 10.8152 13.8128 10.8841 13.7547 10.9422L10.0047 14.6922C9.94664 14.7503 9.87771 14.7964 9.80184 14.8279C9.72596 14.8593 9.64463 14.8755 9.5625 14.8755C9.48037 14.8755 9.39904 14.8593 9.32316 14.8279C9.24729 14.7964 9.17836 14.7503 9.12031 14.6922L7.24531 12.8172C7.12804 12.6999 7.06215 12.5409 7.06215 12.375C7.06215 12.2091 7.12804 12.0501 7.24531 11.9328C7.36259 11.8155 7.52165 11.7497 7.6875 11.7497C7.85335 11.7497 8.01241 11.8155 8.12969 11.9328L9.5625 13.3664L12.8703 10.0578C12.9284 9.9997 12.9973 9.9536 13.0732 9.92215C13.149 9.8907 13.2304 9.87451 13.3125 9.87451C13.3946 9.87451 13.476 9.8907 13.5518 9.92215C13.6277 9.9536 13.6966 9.9997 13.7547 10.0578Z" fill="#1F3045"/>
</g>
</svg>
