<svg width="21" height="21" viewBox="0 0 21 21" fill="none" xmlns="http://www.w3.org/2000/svg">
<g id="Icon/Special/Car">
<path id="Vector" d="M19.25 8.625H18.4062L16.2359 3.74219C16.1377 3.52127 15.9775 3.33358 15.7748 3.20185C15.5721 3.07012 15.3355 3 15.0938 3H5.90625C5.66448 3 5.42791 3.07012 5.22518 3.20185C5.02245 3.33358 4.86228 3.52127 4.76406 3.74219L2.59375 8.625H1.75C1.58424 8.625 1.42527 8.69085 1.30806 8.80806C1.19085 8.92527 1.125 9.08424 1.125 9.25C1.125 9.41576 1.19085 9.57473 1.30806 9.69194C1.42527 9.80915 1.58424 9.875 1.75 9.875H2.375V16.125C2.375 16.4565 2.5067 16.7745 2.74112 17.0089C2.97554 17.2433 3.29348 17.375 3.625 17.375H5.5C5.83152 17.375 6.14946 17.2433 6.38388 17.0089C6.6183 16.7745 6.75 16.4565 6.75 16.125V14.875H14.25V16.125C14.25 16.4565 14.3817 16.7745 14.6161 17.0089C14.8505 17.2433 15.1685 17.375 15.5 17.375H17.375C17.7065 17.375 18.0245 17.2433 18.2589 17.0089C18.4933 16.7745 18.625 16.4565 18.625 16.125V9.875H19.25C19.4158 9.875 19.5747 9.80915 19.6919 9.69194C19.8092 9.57473 19.875 9.41576 19.875 9.25C19.875 9.08424 19.8092 8.92527 19.6919 8.80806C19.5747 8.69085 19.4158 8.625 19.25 8.625ZM5.90625 4.25H15.0938L17.0383 8.625H3.96172L5.90625 4.25ZM5.5 16.125H3.625V14.875H5.5V16.125ZM15.5 16.125V14.875H17.375V16.125H15.5ZM17.375 13.625H3.625V9.875H17.375V13.625ZM4.875 11.75C4.875 11.5842 4.94085 11.4253 5.05806 11.3081C5.17527 11.1908 5.33424 11.125 5.5 11.125H6.75C6.91576 11.125 7.07473 11.1908 7.19194 11.3081C7.30915 11.4253 7.375 11.5842 7.375 11.75C7.375 11.9158 7.30915 12.0747 7.19194 12.1919C7.07473 12.3092 6.91576 12.375 6.75 12.375H5.5C5.33424 12.375 5.17527 12.3092 5.05806 12.1919C4.94085 12.0747 4.875 11.9158 4.875 11.75ZM13.625 11.75C13.625 11.5842 13.6908 11.4253 13.8081 11.3081C13.9253 11.1908 14.0842 11.125 14.25 11.125H15.5C15.6658 11.125 15.8247 11.1908 15.9419 11.3081C16.0592 11.4253 16.125 11.5842 16.125 11.75C16.125 11.9158 16.0592 12.0747 15.9419 12.1919C15.8247 12.3092 15.6658 12.375 15.5 12.375H14.25C14.0842 12.375 13.9253 12.3092 13.8081 12.1919C13.6908 12.0747 13.625 11.9158 13.625 11.75Z" fill="black"/>
</g>
</svg>
