<svg width="15" height="14" viewBox="0 0 15 14" fill="none" xmlns="http://www.w3.org/2000/svg">
<g id="Icon/Special/CurrencyCircleDollar">
<path id="Vector" d="M7.75 1.3125C6.62512 1.3125 5.5255 1.64607 4.5902 2.27102C3.65489 2.89597 2.92591 3.78423 2.49544 4.82349C2.06496 5.86274 1.95233 7.00631 2.17179 8.10958C2.39124 9.21284 2.93292 10.2263 3.72833 11.0217C4.52374 11.8171 5.53716 12.3588 6.64043 12.5782C7.74369 12.7977 8.88726 12.685 9.92651 12.2546C10.9658 11.8241 11.854 11.0951 12.479 10.1598C13.1039 9.2245 13.4375 8.12488 13.4375 7C13.4359 5.49207 12.8362 4.04636 11.7699 2.98009C10.7036 1.91382 9.25793 1.31409 7.75 1.3125ZM7.75 11.8125C6.79818 11.8125 5.86773 11.5303 5.07632 11.0014C4.28491 10.4726 3.66808 9.72103 3.30383 8.84166C2.93959 7.9623 2.84428 6.99466 3.02997 6.06113C3.21566 5.12759 3.67401 4.27009 4.34705 3.59705C5.02009 2.92401 5.8776 2.46566 6.81113 2.27997C7.74466 2.09428 8.7123 2.18958 9.59167 2.55383C10.471 2.91808 11.2226 3.53491 11.7514 4.32632C12.2803 5.11773 12.5625 6.04818 12.5625 7C12.5611 8.27591 12.0536 9.49915 11.1514 10.4014C10.2492 11.3036 9.02591 11.8111 7.75 11.8125ZM9.9375 8.09375C9.9375 8.49986 9.77618 8.88934 9.48901 9.17651C9.20185 9.46367 8.81237 9.625 8.40625 9.625H8.1875V10.0625C8.1875 10.1785 8.14141 10.2898 8.05936 10.3719C7.97731 10.4539 7.86603 10.5 7.75 10.5C7.63397 10.5 7.52269 10.4539 7.44064 10.3719C7.3586 10.2898 7.3125 10.1785 7.3125 10.0625V9.625H6.4375C6.32147 9.625 6.21019 9.57891 6.12814 9.49686C6.0461 9.41481 6 9.30353 6 9.1875C6 9.07147 6.0461 8.96019 6.12814 8.87814C6.21019 8.79609 6.32147 8.75 6.4375 8.75H8.40625C8.5803 8.75 8.74722 8.68086 8.87029 8.55779C8.99336 8.43472 9.0625 8.2678 9.0625 8.09375C9.0625 7.9197 8.99336 7.75278 8.87029 7.62971C8.74722 7.50664 8.5803 7.4375 8.40625 7.4375H7.09375C6.68764 7.4375 6.29816 7.27617 6.011 6.98901C5.72383 6.70184 5.5625 6.31236 5.5625 5.90625C5.5625 5.50014 5.72383 5.11066 6.011 4.82349C6.29816 4.53633 6.68764 4.375 7.09375 4.375H7.3125V3.9375C7.3125 3.82147 7.3586 3.71019 7.44064 3.62814C7.52269 3.54609 7.63397 3.5 7.75 3.5C7.86603 3.5 7.97731 3.54609 8.05936 3.62814C8.14141 3.71019 8.1875 3.82147 8.1875 3.9375V4.375H9.0625C9.17853 4.375 9.28981 4.42109 9.37186 4.50314C9.45391 4.58519 9.5 4.69647 9.5 4.8125C9.5 4.92853 9.45391 5.03981 9.37186 5.12186C9.28981 5.20391 9.17853 5.25 9.0625 5.25H7.09375C6.9197 5.25 6.75278 5.31914 6.62971 5.44221C6.50664 5.56528 6.4375 5.7322 6.4375 5.90625C6.4375 6.0803 6.50664 6.24722 6.62971 6.37029C6.75278 6.49336 6.9197 6.5625 7.09375 6.5625H8.40625C8.81237 6.5625 9.20185 6.72383 9.48901 7.01099C9.77618 7.29816 9.9375 7.68764 9.9375 8.09375Z" fill="#1F3045"/>
</g>
</svg>
