<svg width="20" height="21" viewBox="0 0 20 21" fill="none" xmlns="http://www.w3.org/2000/svg">
<g id="Icon/Special/SteeringWheel">
<path id="Vector" d="M10 12.375C9.81458 12.375 9.63333 12.32 9.47916 12.217C9.32499 12.114 9.20482 11.9676 9.13387 11.7963C9.06291 11.625 9.04434 11.4365 9.08052 11.2546C9.11669 11.0727 9.20598 10.9057 9.33709 10.7746C9.4682 10.6435 9.63525 10.5542 9.81711 10.518C9.99896 10.4818 10.1875 10.5004 10.3588 10.5714C10.5301 10.6423 10.6765 10.7625 10.7795 10.9167C10.8825 11.0708 10.9375 11.2521 10.9375 11.4375C10.9375 11.6861 10.8387 11.9246 10.6629 12.1004C10.4871 12.2762 10.2486 12.375 10 12.375ZM18.125 10.5C18.125 12.107 17.6485 13.6779 16.7557 15.014C15.8629 16.3502 14.594 17.3916 13.1093 18.0065C11.6247 18.6215 9.99099 18.7824 8.4149 18.4689C6.8388 18.1554 5.39106 17.3815 4.25476 16.2452C3.11846 15.1089 2.34463 13.6612 2.03112 12.0851C1.71762 10.509 1.87852 8.87535 2.49348 7.3907C3.10844 5.90605 4.14985 4.6371 5.486 3.74431C6.82214 2.85152 8.39303 2.375 10 2.375C12.1542 2.37727 14.2195 3.23403 15.7427 4.75727C17.266 6.28051 18.1227 8.34581 18.125 10.5ZM3.125 10.5V10.5258C5.04463 8.89521 7.48132 8 10 8C12.5187 8 14.9554 8.89521 16.875 10.5258V10.5C16.875 8.67664 16.1507 6.92795 14.8614 5.63864C13.5721 4.34933 11.8234 3.625 10 3.625C8.17664 3.625 6.42796 4.34933 5.13864 5.63864C3.84933 6.92795 3.125 8.67664 3.125 10.5ZM8.39844 17.1859L7.06641 13.625H3.87735C4.33037 14.5089 4.96881 15.2846 5.74906 15.8991C6.52932 16.5137 7.43302 16.9526 8.39844 17.1859ZM10 17.375C10.0648 17.375 10.1297 17.375 10.1945 17.375L11.7625 13.1898C11.8525 12.9517 12.0128 12.7465 12.2221 12.6015C12.4314 12.4566 12.6798 12.3786 12.9344 12.3781H16.6156C16.6453 12.2758 16.6719 12.1719 16.6938 12.0656C15.8209 11.1751 14.7792 10.4676 13.6295 9.98464C12.4799 9.50167 11.2454 9.2529 9.99844 9.2529C8.75147 9.2529 7.51702 9.50167 6.36737 9.98464C5.21773 10.4676 4.17598 11.1751 3.30313 12.0656C3.32735 12.1703 3.35391 12.2742 3.38125 12.3781H7.06641C7.32108 12.3788 7.56952 12.4569 7.7788 12.602C7.98809 12.7471 8.14833 12.9524 8.23828 13.1906L9.80078 17.375C9.86797 17.375 9.9336 17.375 10 17.375ZM16.1227 13.625H12.9336L11.5984 17.1867C12.5645 16.9538 13.4689 16.5149 14.2497 15.9002C15.0306 15.2855 15.6694 14.5094 16.1227 13.625Z" fill="#14191F"/>
</g>
</svg>
