<svg width="20" height="20" viewBox="0 0 20 20" fill="none" xmlns="http://www.w3.org/2000/svg">
<g id="Icon/Nav/ChartDonut">
<path id="Vector" d="M9.9991 1.875C9.83334 1.875 9.67437 1.94085 9.55716 2.05806C9.43995 2.17527 9.3741 2.33424 9.3741 2.5V6.875C9.3741 7.04076 9.43995 7.19973 9.55716 7.31694C9.67437 7.43415 9.83334 7.5 9.9991 7.5C10.5494 7.50012 11.0843 7.68182 11.5208 8.01692C11.9574 8.35201 12.2711 8.82178 12.4135 9.35336C12.5558 9.88494 12.5188 10.4486 12.3081 10.957C12.0974 11.4654 11.7249 11.8901 11.2483 12.1652C10.7717 12.4403 10.2176 12.5505 9.67202 12.4786C9.12642 12.4067 8.61978 12.1568 8.23067 11.7677C7.84157 11.3785 7.59173 10.8719 7.51992 10.3262C7.4481 9.78064 7.55832 9.22658 7.83348 8.75C7.87453 8.67891 7.90118 8.60042 7.91189 8.51902C7.9226 8.43763 7.91718 8.35492 7.89592 8.27563C7.87466 8.19633 7.83799 8.122 7.788 8.05688C7.73801 7.99175 7.67568 7.93712 7.60457 7.89609L3.81551 5.70859C3.74441 5.66754 3.66593 5.64089 3.58453 5.63018C3.50314 5.61947 3.42043 5.62489 3.34113 5.64615C3.26184 5.66741 3.1875 5.70408 3.12238 5.75407C3.05726 5.80406 3.00263 5.86639 2.9616 5.9375C2.06733 7.48643 1.70913 9.28715 1.94255 11.0604C2.17598 12.8336 2.98798 14.4803 4.25263 15.7451C5.51728 17.0098 7.16391 17.8219 8.93714 18.0554C10.7104 18.289 12.5111 17.9309 14.0601 17.0367C15.6091 16.1425 16.8197 14.7623 17.5043 13.1099C18.1889 11.4576 18.3092 9.6255 17.8464 7.89785C17.3837 6.1702 16.3638 4.64352 14.945 3.55456C13.5261 2.4656 11.7876 1.87523 9.9991 1.875ZM3.75613 7.11719L6.48348 8.69219C6.32828 9.11074 6.24891 9.5536 6.2491 10C6.2491 10.1195 6.25535 10.2344 6.26629 10.3531L3.2241 11.1719C2.98686 9.79762 3.17238 8.38372 3.75613 7.11719ZM3.54754 12.3758L6.59441 11.5602C6.84915 12.1154 7.23543 12.6002 7.71979 12.9726C8.20415 13.3449 8.77199 13.5935 9.3741 13.6969V16.8461C8.08022 16.7262 6.84661 16.2428 5.81566 15.4518C4.7847 14.6609 3.99841 13.5945 3.54754 12.3758ZM10.6241 16.8461V13.6969C11.4976 13.5488 12.2904 13.0963 12.8621 12.4196C13.4338 11.7428 13.7474 10.8855 13.7474 9.99961C13.7474 9.1137 13.4338 8.2564 12.8621 7.57965C12.2904 6.90289 11.4976 6.45039 10.6241 6.30234V3.15313C12.3321 3.30917 13.92 4.09797 15.0763 5.36468C16.2325 6.63139 16.8736 8.28453 16.8736 9.99961C16.8736 11.7147 16.2325 13.3678 15.0763 14.6345C13.92 15.9013 12.3321 16.69 10.6241 16.8461Z" fill="#868F9B"/>
</g>
</svg>
