<svg width="207" height="99" viewBox="0 0 207 99" fill="none" xmlns="http://www.w3.org/2000/svg">
<rect width="207" height="99" fill="#888888"/>
<g clip-path="url(#clip0_614_10243)">
<rect width="375" height="812" transform="translate(-95 -335)" fill="white"/>
<path d="M195.313 69.8837C195.566 70.7233 195.72 71.6933 195.72 72.7421C195.72 75.8421 194.451 78.3557 192.886 78.3557C192.009 78.3557 191.234 77.5484 190.714 76.3084C190.902 75.4805 191.005 74.5711 191.005 73.6166C191.005 72.272 190.792 71.0294 190.437 69.9663C190.444 69.9379 190.456 69.9121 190.464 69.885H189.385C189.835 70.8782 190.116 72.1777 190.116 73.6179C190.116 76.7179 188.848 79.2315 187.282 79.2315C185.718 79.2315 184.449 76.7179 184.449 73.6179C184.449 72.1777 184.73 70.8795 185.18 69.885H178.436C178.065 70.9648 177.844 72.241 177.844 73.6179C177.844 77.4541 179.51 80.5632 181.566 80.5632H187.281C187.927 80.5632 188.525 80.2286 189.053 79.6887H192.883C194.938 79.6887 196.604 76.5797 196.604 72.7434C196.604 71.7217 196.479 70.7581 196.267 69.885L195.313 69.8837Z" fill="#001F54"/>
<path d="M140.313 73.7645H138.807C138.911 74.5369 138.972 75.3429 138.972 76.1799C138.972 81.3402 136.86 85.5226 134.256 85.5226C132.799 85.5226 131.499 84.2128 130.633 82.1578C130.95 80.768 131.125 79.2399 131.125 77.6357C131.125 76.2755 130.992 74.9774 130.762 73.7658H129.22C129.493 74.9464 129.648 76.2536 129.648 77.6357C129.648 82.7959 127.536 86.9783 124.932 86.9783C122.328 86.9783 120.216 82.7959 120.216 77.6357C120.216 76.2536 120.371 74.9464 120.643 73.7658H119.101H118.688H110.838C110.607 74.9774 109.225 76.2768 109.225 77.6357C109.225 84.0204 111.998 89.1961 115.42 89.1961H124.933C126.025 89.1961 127.048 88.6652 127.939 87.7417H134.259C137.679 87.7417 140.454 82.5659 140.454 76.1812C140.45 75.3507 140.402 74.5447 140.313 73.7645Z" fill="#001F54"/>
<path d="M112.752 62.9719V70.4688L119.875 65.9763L120.936 64.779L183.972 66.2489L182.499 67.857L112.752 70.4688V76.1792L197.986 71.4388L199.792 64.7673L112.752 62.9719Z" fill="#001F54"/>
<path d="M11.626 82.1364C12.1633 89.1139 15.3692 94.4821 19.2571 94.4821C23.1115 94.4821 26.298 89.2018 26.8741 82.3094C21.8754 83.4874 16.7074 83.1749 11.626 82.1364Z" fill="#001F54"/>
<path d="M6.61768 80.8973C6.8463 88.4691 10.1995 94.4818 14.3147 94.4818H19.2579V91.1351C20.5677 89.093 21.5041 86.2513 21.8645 83.017C16.7792 83.2895 11.6113 82.3285 6.61768 80.8973Z" fill="#001F54"/>
<path d="M64.4532 69.876H59.51C55.2475 69.876 51.791 76.3253 51.791 84.2806C51.791 92.236 55.2462 98.6853 59.51 98.6853H64.4532C68.7157 98.6853 72.1722 92.236 72.1722 84.2806C72.1722 76.3253 68.717 69.876 64.4532 69.876ZM64.9867 95.3606C61.9797 95.3606 59.5423 90.3993 59.5423 84.2806C59.5423 78.162 61.9797 73.2007 64.9867 73.2007C67.9937 73.2007 70.431 78.162 70.431 84.2806C70.431 90.3993 67.9937 95.3606 64.9867 95.3606Z" fill="#001F54"/>
<path d="M169.388 76.5277L149.128 77.9925C146.967 78.1487 145.125 76.5122 145.014 74.337C144.903 72.1619 146.565 70.2722 148.726 70.1159L168.986 68.6524C171.147 68.4961 172.989 70.1327 173.1 72.3078C173.211 74.4817 171.549 76.3714 169.388 76.5277Z" fill="#001F54"/>
<path d="M33.1954 55.3821H14.2182L12.7212 56.759H33.1954V55.3821Z" fill="#001F54"/>
<path d="M8.88026 55.3821V56.7577H33.1959V55.3821H8.88026ZM8.16209 61.6919H32.4777V60.3162H8.16209V61.6919ZM7.44522 66.6234H31.7608V65.2478H7.44522V66.6234ZM6.72705 71.5563H31.0427V70.1807H6.72705V71.5563Z" fill="#001F54"/>
<path d="M31.7614 65.2465H7.4458V66.6234H31.7614V65.2465Z" fill="#001F54"/>
<path d="M116.116 64.7792H109.225V3.97145L112.852 3.50128L102.716 0.806857H96.7603C93.1423 -0.29106 91.5962 0.0499424 91.5962 0.0499424C90.7411 0.0719007 89.775 0.127445 88.7391 0.207528C82.3763 1.95515 76.6271 5.30444 73.8216 10.453C63.2299 10.3936 51.7212 11.5199 44.8598 13.3929C47.128 10.9671 50.095 8.1177 53.5489 5.74878C53.452 5.76815 53.3848 5.78107 53.3848 5.78107C41.5635 9.75682 35.7549 18.8915 33.8174 22.596C30.9667 23.1398 29.3534 23.5389 29.3534 23.5389L25.8659 32.8105L28.2206 32.6594L25.6902 41.2761V36.0306H23.6907L22.399 37.3223V46.0346C17.306 47.4993 11.5981 49.9057 7.43509 52.1351C22.7246 48.7548 38.1548 51.4079 38.1548 51.4079C38.1548 51.4079 34.3534 72.1895 34.1274 75.1591C11.5374 76.8279 4.83238 74.8865 4.83238 74.8865C4.56243 70.5065 4.77167 66.5165 5.16305 63.1285C4.88017 63.3829 4.58955 63.6632 4.28989 64.0017C4.27697 64.0159 4.26535 64.0275 4.25372 64.0404C4.09355 64.2212 3.93209 64.4214 3.77193 64.6281C3.74222 64.6669 3.71251 64.6992 3.6828 64.7379C3.53555 64.9317 3.38959 65.1448 3.24234 65.3618C3.19971 65.4251 3.1558 65.4806 3.11317 65.5452C2.98013 65.7506 2.84967 65.9753 2.71922 66.2001C2.66626 66.2918 2.61201 66.3732 2.55905 66.4688C2.44151 66.6806 2.33042 66.9144 2.21676 67.1443C2.15476 67.2696 2.09018 67.3845 2.02947 67.5163C1.92097 67.7514 1.82021 68.0097 1.71688 68.2616C1.65746 68.4062 1.59546 68.5393 1.53863 68.6904C1.43401 68.9668 1.33972 69.2678 1.24284 69.5649C1.19505 69.7134 1.1421 69.849 1.0956 70.0027C0.958679 70.4639 0.830796 70.9482 0.714547 71.4585L2.01268 72.8651L0.17334 74.2717V86.2816C0.17334 86.2816 36.8593 89.959 53.9183 87.1858V88.223H59.9C59.6701 86.9972 59.5383 85.6719 59.5383 84.2821C59.5383 78.1622 61.9757 73.2022 64.9827 73.2022C67.9897 73.2022 70.4271 78.1635 70.4271 84.2821C70.4271 85.6719 70.2953 86.9972 70.0667 88.223H73.7428L119.87 84.2821V65.9779H116.111V64.7792H116.116ZM97.4681 5.71778C102.984 6.82086 103.473 14.0516 103.473 14.0516C96.3651 -0.409886 83.9857 14.0516 83.9857 14.0516C86.4373 9.64057 91.9527 4.61469 97.4681 5.71778ZM74.656 46.2244C74.656 46.1134 74.7516 46.0204 74.8627 46.0165C74.9014 46.0152 74.9402 46.0139 74.9789 46.0126C76.2719 45.9816 77.1128 46.754 77.4434 47.7073L80.6842 43.8064L74.6573 44.1139L77.4111 30.1006L88.2973 31.1597V43.419L82.3466 43.7225L77.3982 49.6771L77.3918 49.6719C77.1024 50.3474 76.5121 50.9029 75.5847 51.0927C75.2863 51.1534 75.0345 51.1806 74.8691 51.1922C74.7503 51.2012 74.6573 51.107 74.6573 50.9881L74.656 46.2244ZM72.1721 26.9011L68.7906 41.8702C68.7906 41.8702 67.7805 44.5065 61.6618 44.194C61.6618 44.194 52.8101 44.0506 43.005 44.265L47.4742 28.8993L72.1721 26.9011ZM25.8672 45.1601L30.2989 30.2879L44.8624 29.1099L40.4359 44.3296C35.2821 44.4755 30.0561 44.7274 25.8672 45.1601ZM48.7168 72.019C47.6434 72.2335 42.3643 73.0653 36.8567 73.9268C36.8567 73.9268 36.858 70.4432 38.8859 68.3675C42.2171 66.3396 48.0722 63.9293 49.5757 65.075C51.0779 66.2207 49.7901 71.8046 48.7168 72.019ZM37.7298 68.002C37.7298 68.002 42.6601 57.3819 69.5953 54.0997C69.5953 54.0997 78.6486 53.534 86.1183 55.1176C86.1183 55.1189 47.6253 59.2703 37.7298 68.002ZM73.7079 76.8189L72.6462 75.2934L106.098 72.7023L110.257 74.7819L73.7079 76.8189Z" fill="#001F54"/>
<path d="M118.352 5.39223V62.1958H111.808V6.24085L118.352 5.39223ZM120.935 2.45239L109.225 3.9714V64.7792H120.935V2.45239Z" fill="#001F54"/>
<path d="M32.4782 61.6908V60.3138H8.85105L8.1626 60.9468V61.6908H32.4782Z" fill="#001F54"/>
<path d="M31.0427 70.1777H6.72705V71.5534H31.0427V70.1777Z" fill="#001F54"/>
<path d="M84.9019 31.1591H80.1421V43.4183H84.9019V31.1591Z" fill="#001F54"/>
<path d="M78.5859 42.6278L80.1424 43.4183V31.1591L78.5859 31.9509V42.6278Z" fill="#001F54"/>
<path d="M201.497 55.2079L202.683 48.6024L180.789 42.1621L203.3 45.1601L203.753 42.6426L126.317 14.0516L205.836 31.037L206.381 28.0003L205.204 27.6489L120.935 2.45239L120.215 61.0024L198.049 61.9853L196.057 71.5462L198.592 71.3874L201.497 55.2079Z" fill="#001F54"/>
<path d="M196.212 86.6868L91.4517 98.6851H131.125L196.144 86.6868H196.212Z" fill="#001F54"/>
</g>
<defs>
<clipPath id="clip0_614_10243">
<rect width="375" height="812" fill="white" transform="translate(-95 -335)"/>
</clipPath>
</defs>
</svg>
