<svg width="21" height="20" viewBox="0 0 21 20" fill="none" xmlns="http://www.w3.org/2000/svg">
<g id="Icon/SpinnerGap">
<path id="Vector" d="M11.375 2.5V5C11.375 5.16576 11.3092 5.32473 11.1919 5.44194C11.0747 5.55915 10.9158 5.625 10.75 5.625C10.5842 5.625 10.4253 5.55915 10.3081 5.44194C10.1908 5.32473 10.125 5.16576 10.125 5V2.5C10.125 2.33424 10.1908 2.17527 10.3081 2.05806C10.4253 1.94085 10.5842 1.875 10.75 1.875C10.9158 1.875 11.0747 1.94085 11.1919 2.05806C11.3092 2.17527 11.375 2.33424 11.375 2.5ZM18.25 9.375H15.75C15.5842 9.375 15.4253 9.44085 15.3081 9.55806C15.1908 9.67527 15.125 9.83424 15.125 10C15.125 10.1658 15.1908 10.3247 15.3081 10.4419C15.4253 10.5592 15.5842 10.625 15.75 10.625H18.25C18.4158 10.625 18.5747 10.5592 18.6919 10.4419C18.8092 10.3247 18.875 10.1658 18.875 10C18.875 9.83424 18.8092 9.67527 18.6919 9.55806C18.5747 9.44085 18.4158 9.375 18.25 9.375ZM14.7273 13.0938C14.6092 12.9815 14.4518 12.9198 14.2889 12.9219C14.1259 12.924 13.9702 12.9897 13.8549 13.1049C13.7397 13.2202 13.674 13.3759 13.6719 13.5389C13.6698 13.7018 13.7315 13.8592 13.8438 13.9773L15.6109 15.7453C15.7282 15.8626 15.8873 15.9285 16.0531 15.9285C16.219 15.9285 16.378 15.8626 16.4953 15.7453C16.6126 15.628 16.6785 15.469 16.6785 15.3031C16.6785 15.1373 16.6126 14.9782 16.4953 14.8609L14.7273 13.0938ZM10.75 14.375C10.5842 14.375 10.4253 14.4408 10.3081 14.5581C10.1908 14.6753 10.125 14.8342 10.125 15V17.5C10.125 17.6658 10.1908 17.8247 10.3081 17.9419C10.4253 18.0592 10.5842 18.125 10.75 18.125C10.9158 18.125 11.0747 18.0592 11.1919 17.9419C11.3092 17.8247 11.375 17.6658 11.375 17.5V15C11.375 14.8342 11.3092 14.6753 11.1919 14.5581C11.0747 14.4408 10.9158 14.375 10.75 14.375ZM6.77266 13.0938L5.00469 14.8609C4.88741 14.9782 4.82153 15.1373 4.82153 15.3031C4.82153 15.469 4.88741 15.628 5.00469 15.7453C5.12196 15.8626 5.28102 15.9285 5.44687 15.9285C5.61273 15.9285 5.77179 15.8626 5.88906 15.7453L7.65625 13.9773C7.76851 13.8592 7.83017 13.7018 7.82809 13.5389C7.826 13.3759 7.76033 13.2202 7.64508 13.1049C7.52983 12.9897 7.37412 12.924 7.21114 12.9219C7.04816 12.9198 6.89082 12.9815 6.77266 13.0938ZM6.375 10C6.375 9.83424 6.30915 9.67527 6.19194 9.55806C6.07473 9.44085 5.91576 9.375 5.75 9.375H3.25C3.08424 9.375 2.92527 9.44085 2.80806 9.55806C2.69085 9.67527 2.625 9.83424 2.625 10C2.625 10.1658 2.69085 10.3247 2.80806 10.4419C2.92527 10.5592 3.08424 10.625 3.25 10.625H5.75C5.91576 10.625 6.07473 10.5592 6.19194 10.4419C6.30915 10.3247 6.375 10.1658 6.375 10ZM5.88906 4.25469C5.77179 4.13741 5.61273 4.07153 5.44687 4.07153C5.28102 4.07153 5.12196 4.13741 5.00469 4.25469C4.88741 4.37196 4.82153 4.53102 4.82153 4.69687C4.82153 4.86273 4.88741 5.02179 5.00469 5.13906L6.77266 6.90625C6.89082 7.01851 7.04816 7.08017 7.21114 7.07809C7.37412 7.076 7.52983 7.01033 7.64508 6.89508C7.76033 6.77983 7.826 6.62412 7.82809 6.46114C7.83017 6.29816 7.76851 6.14082 7.65625 6.02266L5.88906 4.25469Z" fill="#ECF5FA"/>
</g>
</svg>
