<svg width="21" height="20" viewBox="0 0 21 20" fill="none" xmlns="http://www.w3.org/2000/svg">
<g id="Icon/WarningOctagon">
<g id="Vector">
<path fill-rule="evenodd" clip-rule="evenodd" d="M10.5 5.625C10.8452 5.625 11.125 5.90483 11.125 6.25V10.625C11.125 10.9702 10.8452 11.25 10.5 11.25C10.1548 11.25 9.875 10.9702 9.875 10.625V6.25C9.875 5.90483 10.1548 5.625 10.5 5.625Z" fill="#ECF5FA"/>
<path fill-rule="evenodd" clip-rule="evenodd" d="M13.3507 1.875C13.5136 1.8746 13.675 1.90625 13.8257 1.96814C13.9767 2.0302 14.1141 2.12144 14.2299 2.23666L14.231 2.23775L18.2633 6.27009C18.3786 6.38588 18.4698 6.52325 18.5319 6.67435C18.5938 6.82508 18.6254 6.98651 18.625 7.14945L18.625 7.15063L18.625 7.14844V7.14945V12.8293C18.625 13.1608 18.4933 13.4788 18.2589 13.7132L14.2132 17.7589C13.9788 17.9933 13.6608 18.125 13.3293 18.125H7.63388C7.30236 18.125 6.98442 17.9933 6.75 17.7589L2.74112 13.75C2.5067 13.5156 2.375 13.1976 2.375 12.8661V7.10518C2.375 6.77136 2.50852 6.45142 2.74581 6.21663L6.76838 2.23645C7.00241 2.00489 7.31834 1.875 7.64757 1.875H13.3507ZM13.3505 3.125L17.375 7.14951V12.8293L13.3293 16.875H7.63388L3.625 12.8661V7.10518L7.64757 3.125H13.3505Z" fill="#ECF5FA"/>
<path d="M10.5 14.375C11.0178 14.375 11.4375 13.9553 11.4375 13.4375C11.4375 12.9197 11.0178 12.5 10.5 12.5C9.98223 12.5 9.5625 12.9197 9.5625 13.4375C9.5625 13.9553 9.98223 14.375 10.5 14.375Z" fill="#ECF5FA"/>
</g>
</g>
</svg>
